<?xml version="1.0" standalone="no"?>
<!DOCTYPE svg PUBLIC "-//W3C//DTD SVG 1.1//EN" "http://www.w3.org/Graphics/SVG/1.1/DTD/svg11.dtd" >
<svg xmlns="http://www.w3.org/2000/svg">
<metadata>Generated by IcoMoon</metadata>
<defs>
<font id="fonticon" horiz-adv-x="1024">
<font-face units-per-em="1024" ascent="960" descent="-64" />
<missing-glyph horiz-adv-x="1024" />
<glyph unicode="&#x20;" horiz-adv-x="512" d="" />
<glyph unicode="&#xe900;" glyph-name="add-files" horiz-adv-x="512" d="M258.151-64c-161.553 0.034-258.058 106.881-258.151 285.807l0.953 553.094c-0.012 14.4 2.615 65.336 36.57 113.099 23.353 32.85 67.885 71.999 147.43 71.999 81.567 0 125.809-36.433 148.581-67.013 32.757-43.976 36.279-95.174 36.268-115.142l-0.883-556.232c0.012-20.527 0.058-68.782-33.71-101.929-20.633-20.253-49.136-30.523-84.682-30.523-67.293 0-107.373 49.612-107.443 132.714l-0.302 553.848c-0.012 18.907 15.6 34.242 34.849 34.254 19.273 0 34.884-15.313 34.896-34.208l0.291-553.847c0.046-63.704 25.829-64.297 37.209-64.297 16.867 0 28.77 3.526 35.849 10.475 13.321 13.076 13.298 40.404 13.286 53.537l0.883 556.266c0 13.19-2.197 46.976-22.83 74.658-19.25 25.856-50.251 38.966-92.122 38.966-39.883 0-70.233-14.366-90.39-42.709-17.739-24.966-24.027-55.443-24.016-73.962l-0.953-553.083c0.046-81.093 24.574-217.276 188.405-217.31 152.173 0.023 184.116 118.109 184.116 217.162l-1.476 458.331c-0.058 18.907 15.507 34.288 34.756 34.345 19.319 0 34.931-15.256 34.989-34.117l1.476-458.445c0-181.607-92.529-285.715-253.849-285.738z" />
<glyph unicode="&#xe901;" glyph-name="arrow-down" d="M477.867 374.379v278.421h68.267v-275.995l105.328 105.328 48.272-48.272-140.674-140.674 4.141-4.141-48.272-48.272-4.141 4.141-4.141-4.141-48.272 48.272 4.141 4.141-140.674 140.674 48.272 48.272 107.754-107.754zM0 448c0 282.77 229.23 512 512 512s512-229.23 512-512c0-282.77-229.23-512-512-512s-512 229.23-512 512zM68.267 448c0-245.067 198.666-443.733 443.733-443.733s443.733 198.666 443.733 443.733c0 245.067-198.666 443.733-443.733 443.733s-443.733-198.666-443.733-443.733z" />
<glyph unicode="&#xe902;" glyph-name="arrow-round" d="M585.621 413.867h-278.421v68.267h275.995l-105.328 105.328 48.272 48.272 140.674-140.674 4.141 4.141 48.272-48.272-4.141-4.141 4.141-4.141-48.272-48.272-4.141 4.141-140.674-140.674-48.272 48.272 107.754 107.754zM512-64c-282.77 0-512 229.23-512 512s229.23 512 512 512c282.77 0 512-229.23 512-512s-229.23-512-512-512zM512 4.267c245.067 0 443.733 198.666 443.733 443.733s-198.666 443.733-443.733 443.733c-245.067 0-443.733-198.666-443.733-443.733s198.666-443.733 443.733-443.733z" />
<glyph unicode="&#xe903;" glyph-name="bus" d="M606.436 505.352c0 12.37 10.24 22.491 22.756 22.491 63.716 0 116.053 51.729 116.053 114.704 0 12.37 10.24 22.491 22.756 22.491s22.756-10.121 22.756-22.491c0-88.839-72.818-160.81-162.702-160.81-11.378 1.125-21.618 11.245-21.618 23.615zM1024 735.884v-103.458c0-19.117-15.929-34.861-35.271-34.861s-35.271 15.744-35.271 34.861v103.458c0 0 0 0 0 0l-46.649 17.993v-501.548c0-38.235-15.929-71.971-40.96-97.836v-51.729c0-76.469-62.578-138.319-139.947-138.319h-11.378c-77.369 0-139.947 61.85-139.947 138.319v11.245h-126.293v-11.245c0-76.469-62.578-138.319-139.947-138.319h-11.378c-77.369 0-139.947 61.85-139.947 138.319v52.854c-25.031 24.74-40.96 59.601-40.96 97.836v501.548l-46.649-17.993c0 0 0 0 0 0v-103.458c0-19.117-15.929-34.861-35.271-34.861s-34.133 14.619-34.133 33.736v103.458c0 16.868 12.516 31.487 28.444 33.736l87.609 34.861c6.827 70.847 67.129 127.074 139.947 127.074h512c72.818 0 133.12-56.227 138.809-127.074l87.609-34.861c17.067-3.374 29.582-16.868 29.582-33.736zM302.649 217.468c38.684 0 69.404 31.487 69.404 68.597 0 38.235-31.858 68.597-69.404 68.597s-69.404-31.487-69.404-68.597c0-37.11 30.72-68.597 69.404-68.597zM651.947 287.19c0-38.235 31.858-68.597 69.404-68.597 38.684 0 69.404 31.487 69.404 68.597 0 38.235-31.858 68.597-69.404 68.597-38.684 0-69.404-30.363-69.404-68.597zM186.596 793.236v-246.276c0-58.476 47.787-105.707 106.951-105.707h438.044c59.164 0 106.951 47.231 106.951 105.707v246.276c0 38.235-31.858 68.597-69.404 68.597h-512c-39.822 0-70.542-30.363-70.542-68.597z" />
<glyph unicode="&#xe904;" glyph-name="calendar" d="M928 832h-64v48c0 44.183-35.817 80-80 80s-80-35.817-80-80v-48h-384v48c0 44.183-35.817 80-80 80s-80-35.817-80-80v-48h-64c-53.019 0-96-42.981-96-96v-704c0-53.019 42.981-96 96-96h832c53.019 0 96 42.981 96 96v704c0 53.019-42.981 96-96 96zM896 64h-768v512h768v-512zM320 288v64c0 17.673 14.327 32 32 32h96v96c0 17.673 14.327 32 32 32h64c17.673 0 32-14.327 32-32v-96h96c17.673 0 32-14.327 32-32v-64c0-17.673-14.327-32-32-32h-96v-96c0-17.673-14.327-32-32-32h-64c-17.673 0-32 14.327-32 32v96h-96c-17.673 0-32 14.327-32 32z" />
<glyph unicode="&#xe905;" glyph-name="calendar2" d="M259.496-64h505.008c113.081 0 205.601 92.856 205.601 206.348v514.579c0 113.491-92.521 206.348-205.601 206.348h-7.71v45.139c0 28.373-23.13 51.587-51.4 51.587s-51.4-23.214-51.4-51.587v-45.139h-283.987v45.139c0 28.373-23.13 51.587-51.4 51.587s-51.4-23.214-51.4-51.587v-45.139h-7.71c-113.081 0-205.601-92.856-205.601-206.348v-513.29c0-114.781 92.521-207.637 205.601-207.637zM765.789 39.174h-506.293c-56.54 0-102.801 46.428-102.801 103.174v332.736h710.609v-331.446c1.285-58.035-44.975-104.463-101.516-104.463zM259.496 760.101h7.71v-70.932c0-28.373 23.13-51.587 51.4-51.587s51.4 23.214 51.4 51.587v70.932h285.272v-70.932c0-28.373 23.13-51.587 51.4-51.587s51.4 23.214 51.4 51.587v70.932h7.71c56.54 0 102.801-46.428 102.801-103.174v-78.67h-711.894v78.67c0 56.746 46.26 103.174 102.801 103.174z" />
<glyph unicode="&#xe906;" glyph-name="close-thick" d="M680.951 448l337.903 337.903-168.951 168.951-337.903-337.903-337.903 337.903-168.951-168.951 337.903-337.903-337.903-337.903 168.951-168.951 337.903 337.903 337.903-337.903 168.951 168.951-337.903 337.903z" />
<glyph unicode="&#xe907;" glyph-name="close-thin2" d="M656.815 448l289.631 289.631-144.815 144.815-289.631-289.631-289.631 289.631-144.815-144.815 289.631-289.631-289.631-289.631 144.815-144.815 289.631 289.631 289.631-289.631 144.815 144.815-289.631 289.631z" />
<glyph unicode="&#xe908;" glyph-name="document" horiz-adv-x="819" d="M565.993 916.385c-27.927 28.444-65.164 43.615-106.124 43.615h-303.476c-81.92 0-148.945-68.267-148.945-151.704v-720.593c0-83.437 67.025-151.704 148.945-151.704h504.553c81.92 0 148.945 68.267 148.945 151.704v515.793c0 39.822-14.895 77.748-42.822 108.089l-201.076 204.8zM545.513 831.052l139.636-142.222h-65.164c-40.96 0-74.473 34.133-74.473 75.852v66.37zM737.28 87.704c0-41.719-33.513-75.852-74.473-75.852h-506.415c-40.96 0-74.473 34.133-74.473 75.852v720.593c0 41.719 33.513 75.852 74.473 75.852h305.338c3.724 0 5.585 0 9.309 0v-119.467c0-83.437 67.025-151.704 148.945-151.704h117.295c0-3.793 0-5.689 0-9.481v-515.793zM215.971 391.111c-20.48 0-37.236 17.067-37.236 37.926s16.756 37.926 37.236 37.926h171.287c20.48 0 37.236-17.067 37.236-37.926s-16.756-37.926-37.236-37.926h-171.287zM601.367 271.644c20.48 0 37.236-17.067 37.236-37.926s-16.756-37.926-37.236-37.926h-385.396c-20.48 0-37.236 17.067-37.236 37.926s16.756 37.926 37.236 37.926h385.396z" />
<glyph unicode="&#xe909;" glyph-name="soc-fb" d="M761.179 959.787l-129.269 0.213c-145.229 0-239.083-98.913-239.083-252.008v-116.192h-129.974c-11.231 0-20.326-9.353-20.326-20.891v-168.35c0-11.537 9.105-20.88 20.326-20.88h129.974v-424.8c0-11.537 9.095-20.88 20.326-20.88h169.579c11.231 0 20.326 9.353 20.326 20.88v424.8h151.97c11.231 0 20.326 9.343 20.326 20.88l0.062 168.35c0 5.54-2.147 10.845-5.953 14.765s-8.991 6.125-14.384 6.125h-152.022v98.498c0 47.342 10.982 71.375 71.018 71.375l87.082 0.032c11.221 0 20.316 9.353 20.316 20.88v156.322c0 11.516-9.085 20.859-20.295 20.88z" />
<glyph unicode="&#xe90a;" glyph-name="gift" d="M56.441 504.87c0-12.976 0-31.939 0-56.889h113.778l7.167-395.191c0-33.398 27.074-60.472 60.472-60.472h241.89v381.536h120.945v-381.536h241.89c33.398 0 60.472 27.074 60.472 60.472l6.719 395.191h113.778c0.126 24.65 0.126 43.613 0 56.889l0.448 92.172c0 33.398-27.074 60.472-60.472 60.472h-46.463c38.93 43.222 54.688 102.534 42.345 159.378s-51.282 104.279-104.631 127.463c-66.004 29.471-143.257 16.351-195.83-33.26l-118.728-110.261-118.728 110.261c-52.551 49.645-129.806 62.806-195.83 33.361-53.386-23.174-92.354-70.629-104.7-127.504s3.44-116.215 42.413-159.438h-46.463c-33.398 0-60.472-27.074-60.472-60.472v-92.172zM741.795 820.791c19.483 18.147 48.666 21.102 71.392 7.229s33.434-41.181 26.198-66.804c-7.237-25.623-30.649-43.294-57.275-43.228h-151.181l110.866 102.803zM274.444 831.676c7.805 3.345 16.201 5.093 24.693 5.14 14.756 0.018 28.935-5.733 39.509-16.025l110.866-102.803h-151.181c-28.217-0.258-52.702 19.416-58.527 47.026s8.624 55.498 34.54 66.662h0.101zM56.889 504.889h967.111v-56.889h-967.111v56.889z" />
<glyph unicode="&#xe90b;" glyph-name="house" d="M96.464 673.269c-11.469 0-20.777 9.175-20.777 20.48v122.878c0 11.305 9.308 20.48 20.777 20.48h161.29l244.938 120.728c5.859 2.888 12.757 2.888 18.595 0l244.938-120.728h161.311c11.49 0 20.777-9.175 20.777-20.48v-122.878c0-11.305-9.287-20.48-20.777-20.48h-831.072zM969.090 99.838c11.49 0 20.777-9.154 20.777-20.48v-122.878c0-11.325-9.287-20.48-20.777-20.48h-914.18c-11.469 0-20.777 9.154-20.777 20.48v122.878c0 11.325 9.308 20.48 20.777 20.48h62.33v20.48c0 11.325 9.308 20.48 20.777 20.48h747.965c11.49 0 20.777-9.154 20.777-20.48v-20.48h62.33zM138.017 591.35h166.214c11.469 0 20.777-9.175 20.777-20.48v-327.675c0-11.325-9.308-20.48-20.777-20.48h-166.214c-11.469 0-20.777 9.154-20.777 20.48v327.675c0 11.305 9.308 20.48 20.777 20.48zM428.893 591.35h166.214c11.49 0 20.777-9.175 20.777-20.48v-327.675c0-11.325-9.287-20.48-20.777-20.48h-166.214c-11.469 0-20.777 9.154-20.777 20.48v327.675c0 11.305 9.308 20.48 20.777 20.48zM719.768 591.35h166.214c11.49 0 20.777-9.175 20.777-20.48v-327.675c0-11.325-9.287-20.48-20.777-20.48h-166.214c-11.49 0-20.777 9.154-20.777 20.48v327.675c0 11.305 9.287 20.48 20.777 20.48z" />
<glyph unicode="&#xe90c;" glyph-name="close-thin" d="M598.889 448l391.002 391.002c23.994 23.994 23.994 62.895 0 86.889s-62.895 23.994-86.889 0v0l-391.002-391.002-391.002 391.002c-23.994 23.994-62.895 23.994-86.889 0s-23.994-62.895 0-86.889v0l391.002-391.002-391.002-391.002c-23.994-23.994-23.994-62.895 0-86.889v0c23.994-23.994 62.895-23.994 86.889 0v0l391.002 391.002 391.002-391.002c23.994-23.994 62.895-23.994 86.889 0v0c23.994 23.994 23.994 62.895 0 86.889v0l-391.002 391.002z" />
<glyph unicode="&#xe90d;" glyph-name="ant" d="M575.042 521.587c-5.939-2.79-19.843 0.945-32.427 13.029-12.538 12.15-16.247 21.751-9.717 28.584 9.58 9.909 24.644 6.13 31.972-8.722 10.991-22.322 13.813-31.155 10.172-32.89zM506.002 452.532c-7.1-1.955-14.359-3.427-20.139-4.35-4.369 3.955-8.761 7.953-13.107 11.732-8.033 7.075-15.747 13.952-23.393 21.312l-15.952 15.424c-0.523 0.505-0.592 1.318-0.137 1.911s1.274 0.747 1.957 0.417c9.899-5.317 19.593-11.007 29.764-16.324 7.191-3.823 14.7-7.58 22.596-11.007 3.959-1.692 8.055-3.384 12.334-5.009 2.162-0.791 4.392-1.56 6.804-2.263 2.753-0.681 4.301-1.384 9.239-1.846 2.594-0.044 4.938 0.461 7.168 1.296 0.319 0.132 0.683 0.044 0.865-0.198 0.228-0.242 0.25-0.593 0.068-0.879-3.322-4.856-9.466-7.866-18.068-10.216zM1004.554 752.017c-1.957 3.142-6.167 4.109-9.421 2.219l-0.978-0.571c-7.031-4.109-18.523-6.943-28.763-8.415-10.581-1.516-21.458-2.109-32.358-2.109-10.877 0-21.823 0.593-32.791 1.582-10.854 1.121-22.437 2.263-33.997 2.153-23.029-0.088-46.262-3.911-67.812-12.414-17.203-6.877-33.2-16.852-46.581-29.397-2.071 0.198-4.255-0.198-6.121-1.494-10.786-7.492-17.795-17.357-25.395-26.936-7.487-9.645-14.518-19.466-21.322-29.529-10.832-16.39-20.571-33.396-29.65-50.687-12.743 15.336-23.802 8.92-26.351 8.371 0 0-13.631 10.019-60.507 7.997-11.583-0.483-21.39-3.186-29.673-7.25-5.894 7.712-11.992 15.292-18.318 22.63l-16.839 18.434c-5.803 5.976-11.014 12.479-19.046 16.434-2.071 1.011-4.506 0.967-6.781 0.264-7.396 4.943-16.498 6.833-24.508 8.107-11.31 1.428-22.369 1.582-33.155 1.802-10.832 0.242-21.163 0.088-31.198 1.824-9.899 1.582-20.321 3.955-28.9 7.778l-0.387 0.198c-3.345 1.516-7.373 0.176-9.034-3.054-1.661-3.252-0.319-7.25 3.095-8.876 10.877-5.251 21.595-8.261 32.905-10.085 11.31-1.846 22.687-2.043 33.473-1.846 10.763 0.11 21.367 0.264 31.539-0.747 7.077-0.725 13.858-1.758 20.070-3.801 0.114-1.142 0.432-2.285 1.024-3.384l0.159-0.22c4.119-7.184 10.763-12.106 16.657-17.687l17.749-16.808c6.508-6.152 12.675-12.589 18.978-18.939-12.743-10.26-20.002-23.751-23.165-34.077-4.506-14.808-2.276-26.497 3.732-36.845-11.992 2.571-41.711 7.844-61.781-10.656-0.546-0.505-1.047-1.099-1.57-1.648-8.761 2.812-17.408 5.976-25.395 10.194h-0.023l-2.025 0.769-0.159 0.044c-5.12 1.824-10.786-0.703-12.652-5.625l-6.645-17.445c-1.229-1.692-1.593-3.955-0.637-5.976l1.161-2.505c5.052-10.898 11.127-20.345 18.341-29.419 7.122-8.986 15.223-17.445 23.825-24.959 8.624-7.668 17.749-14.435 27.443-20.433 4.756-3.098 9.762-5.866 14.677-8.7 4.346-3.625 11.787-2.966 16.816-5.69 9.375-6.525 16.725-15.336 25.372-22.63l25.987-22.85c0.091-0.088 0.182-0.176 0.296-0.264 2.048-1.604 4.665-1.955 7.009-1.318 11.81-8.547 24.189-16.193 36.932-23.531 0.182-0.11 0.41-0.198 0.637-0.308 3.391-1.538 7.487-0.11 9.102 3.208 1.593 3.34 0.137 7.272-3.322 8.854l-0.159 0.066c-12.743 5.734-25.281 12.26-37.433 19.29-0.114 2.043-1.024 4.021-2.776 5.449l-24.667 19.664c-0.114 0.352-0.205 0.681-0.319 1.033-1.479 5.339-3.072 10.612-4.665 15.907-5.188 15.907-20.935 24.080-21.072 3.23-1.229 1.033-2.48 2.065-3.618 3.208l-0.523 0.417c-3.982 3.274-5.643 9.733-9.785 12.853 1.502 1.582 2.89 2.966 4.096 3.999 14.222 12.062 22.255 4.021 37.66 18.060 4.551 4.109 7.236 7.756 9.102 11.161 1.547 2.768 0.774 5.778-1.684 8.525-9.83 10.898-18.159 23.531-23.097 37.988-0.137 0.352 0 0.747 0.341 0.945 0.341 0.22 0.774 0.154 1.047-0.132 13.084-12.611 32.381-24.3 63.579-40.426 4.164-6.042 18.091-20.938 45.375-19.796-11.355 15.863-18.66 31.572-15.679 36.164 2.981 4.57 14.632 4.065 19.547-1.274 5.666-6.108 12.72-25.354 12.993-32.781 17.158 1.494 16.475 18.28 9.717 39.613 4.187 13.424 6.713 21.553 6.713 37.592 0 0.374 0.273 0.659 0.637 0.747 0.364 0.066 0.728-0.11 0.887-0.461 1.729-3.999 3.322-7.975 4.642-11.952 0.25-0.791 0.887-1.45 1.661-1.802 0.842-0.33 1.752-0.308 2.549 0.066l15.132 6.987c0.933-1.56 1.957-3.054 3.118-4.438 1.775-2.087 4.050-3.757 6.667-5.141-3.277-9.601-5.871-19.312-7.919-29.067-1.138-5.888-2.458-11.754-2.571-17.818-0.114-6.042-0.091-12.084 4.483-18.807-1.32-9.074-4.597-17.643-7.441-26.321l-8.602-26.783-0.159-0.593c-0.501-2.153 0-4.196 1.138-5.888-5.461-12.062-12.174-23.663-19.729-34.143l-0.137-0.198c-0.182-0.198-0.273-0.417-0.387-0.637-1.82-3.252-0.546-7.25 2.776-9.008 3.345-1.736 7.532-0.527 9.33 2.746 6.872 12.304 12.379 24.959 16.543 38.032 2.89 0.659 5.302 2.768 5.962 5.734l6.349 27.354c2.071 9.118 3.664 18.368 7.418 27.090l0.137 0.681c6.44 5.119 8.351 10.92 10.081 16.698 1.684 5.8 2.276 11.776 2.981 17.752 1.229 11.908 2.002 23.926 1.32 36.142l-2.298 7.712c-0.501 4.921-2.753 8.393-5.552 11.403s-6.098 5.647-10.65 7.206l-8.101 2.724c-0.842 0.308-1.798 0.417-2.753 0.242l-27.853-4.504c-0.432 5.647-0.956 11.337-2.048 16.962 0 0 5.097 12.106 0.887 26.409 11.787 18.873 24.075 37.372 37.296 55.191 6.94 9.469 14.154 18.763 21.709 27.749 7.373 9.030 15.792 17.445 21.891 27.024l0.25 0.461c0.887 1.428 1.343 3.142 1.252 4.812 12.834 10.963 27.557 19.862 43.44 25.882 19.866 7.778 41.438 11.293 62.987 11.315 10.786 0.066 21.367-1.033 32.7-2.241 11.287-1.033 22.619-1.692 34.042-1.736 11.423-0.022 22.892 0.527 34.406 2.153 11.651 1.999 22.574 3.669 34.748 10.678l0.046 0.044c3.254 1.889 4.278 5.954 2.321 9.052zM136.384 227.177c-0.091-0.264-0.228-0.352-0.319-0.615l-7.942-23.465c-0.046-0.088-0.068-0.22-0.114-0.264-0.364-0.989-0.478-1.999-0.41-2.966-3.459-2.439-7.942-3.867-12.857-4.394-7.782-0.813-16.498 0.044-24.166 1.78l-0.273 0.044c-0.205 0.066-0.41 0.088-0.637 0.132-3.777 0.483-7.236-2.087-7.714-5.734-0.501-3.625 2.139-6.943 5.894-7.404 9.762-1.252 19.046-1.318 28.763 0.527 4.779 1.011 9.694 2.549 14.154 5.427 1.229 0.769 2.23 1.911 3.345 2.922 3.482-0.505 7.009 1.274 8.238 4.614l9.648 30.891c2.025 9.755-8.488 18.697-15.61-1.494zM301.93 423.047c-2.958 2.153-5.939 4.328-9.011 6.328-7.76 5.031-15.861 9.513-24.257 13.688 0.41 0.505 0.751 1.055 1.161 1.56l9.284 11.996 0.978 1.296c0.637 0.813 1.889 2.153 2.935 2.087 1.024-0.088 1.729-1.604 2.23-2.505 1.593-2.966 3.3-5.844 4.983-8.7 3.595-6.020 7.214-11.996 11.105-17.709 0.705-0.967 1.411-1.933 2.116-2.9-0.501-1.736-1.024-3.427-1.525-5.141zM442.173 430.122c-5.916 8.437-10.763 16.588-15.132 24.498-0.273 0.527-0.865 0.835-1.479 0.769-0.637-0.044-1.138-0.439-1.32-1.011-0.887-2.746-1.547-5.141-1.934-6.855-5.666 1.45-21.754 3.735-37.501-0.176-1.434-0.374-3.254-1.296-3.777-2.658-0.501-1.34 0.387-2.922 1.229-4.087 3.231-4.592 5.689-9.206 8.283-13.973 10.945-20.279 16.634-35.9 15.724-36.603-1.138-0.945-6.098 5.734-8.010 8.349-3.55 4.702-7.122 9.404-10.741 14.039-8.283 10.216-17.613 20.499-27.511 29.397-10.012 9.096-20.503 17.423-32.836 24.344-2.503 1.362-5.666 1.362-8.192-0.242-0.273-0.176-0.41-0.439-0.66-0.637-2.23-0.769-4.119-2.329-4.824-4.658-0.569-1.692-1.047-3.34-1.57-5.009-2.344 2.461-4.688 4.987-7.077 7.382-4.892 4.768-10.149 10.37-14.45 12.919-2.116 1.23-3.755 0.857-3.755 0.857l-0.091 0.044c-2.025 1.142-3.709-0.242-5.461-2.065-2.844-2.988-6.030-6.943-9.284-10.788l-9.648-11.645c-1.274-1.582-2.617-3.076-3.982-4.57-1.98 0.791-3.732 1.824-5.78 2.571-1.525 0.549-3.163 0.439-4.756 0.022-2.776 0.615-5.757-0.22-7.669-2.483-7.919-9.469-15.861-18.961-23.802-28.364-10.354-2.615-21.003-6.547-31.858-12.392-62.783-33.901-98.987-76.525-92.297-127.519 0.387-3.010 0.956-5.625 1.638-8.129l-7.009-9.294-22.596-27.551c-5.803-8.283-12.834-15.775-16.953-25.223-0.41-0.879-0.319-1.868-0.341-2.812-4.21-3.823-8.943-6.965-14.45-8.7-3.823-1.252-7.896-1.977-11.992-2.285-4.028-0.308-8.511-0.154-11.992 0.461l-0.228 0.066c-0.159 0.022-0.341 0.044-0.501 0.044-3.8 0.352-7.168-2.285-7.555-5.91-0.364-3.625 2.389-6.899 6.167-7.272 5.643-0.571 10.445-0.264 15.565 0.417 5.006 0.747 9.99 1.955 14.746 3.911 6.599 2.549 12.607 6.679 17.476 11.667 2.025-0.088 4.073 0.593 5.666 2.043 7.669 7.031 16.634 19.312 22.665 27.486l17.044 25.201 17.158 25.091 8.806 12.392c3.231 3.933 5.052 8.854 10.286 11.381l-0.865-0.989c4.233 1.296 6.44 4.372 9.125 7.053l7.828 8.195 15.519 16.522c10.217 11.139 20.503 22.278 30.128 33.989 17.135 20.653 33.178 41.811 48.788 63.364 0.523 0.725 1.365 1.164 2.253 1.23 0.933 0.066 1.843-0.286 2.458-0.923 7.737-7.997 15.792-15.819 23.984-23.355 5.894-5.603 11.947-10.92 18-16.215-2.321-7.975-4.483-15.995-6.599-24.014-3.55 2.768-7.054 5.515-10.24 7.931-9.375 7.141-16.452 13.051-22.414 18.17-0.978 0.857-2.23 1.252-3.504 1.099-1.274-0.11-2.458-0.747-3.209-1.736-22.801-29.573-40.983-52.73-62.373-84.105-23.893-34.978-31.79-60.486-6.394-57.893 29.013 4.856 64.444 15.38 88.906 24.915-1.889-8.393-3.732-16.896-6.121-25.267-3.049-11.623-6.758-23.135-9.466-34.846-3.026-11.623-6.098-23.223-6.144-35.461 0-0.527 0.341-0.967 0.455-1.472-7.214-8.7-22.187-11.908-34.748-12.062h-0.364c-0.182 0-0.341 0-0.546-0.022-3.777-0.352-6.554-3.603-6.212-7.25 0.364-3.647 3.732-6.35 7.532-5.976 9.99 0.901 19.183 3.054 28.24 7.514 4.415 2.219 8.715 5.185 12.151 9.096 0.751 0.813 1.206 1.846 1.843 2.746 2.844 0.22 5.416 1.824 6.622 4.504 4.915 11.249 6.758 23.113 8.715 34.956 2.185 11.776 3.482 23.772 5.37 35.637 1.661 11.93 3.777 23.729 6.372 35.439 0.796 2.746 2.594 6.086 4.369 7.931 1.957 2.615 3.459 5.361 4.073 8.283l4.665 17.423c6.053 23.245 12.607 46.381 18.113 69.78 4.46 17.752 8.647 35.571 12.607 53.455 0.137 0.571 0.614 1.055 1.229 1.164 0.592 0.11 1.183-0.11 1.547-0.615 4.028-5.559 8.169-11.029 12.242-16.434l22.756-30.144c18.591-24.014 46.467-59.233 53.43-61.694 6.963-2.395 13.54 0.088 27.284 12.721 8.26 7.58 20.639 23.553 33.018 39.855 1.684 2.131 1.843 3.647-0.501 5.778-8.010 7.382-20.48 20.894-33.36 39.284zM624.9 181.631h-0.114c-3.436-0.659-7.964-0.681-11.901-0.088-4.050 0.615-7.919 1.868-11.378 3.779-3.049 1.714-5.598 4.065-7.828 6.767 0.114 0.615 0.296 1.208 0.228 1.846-0.91 11.117-5.325 25.288-8.169 35.988l-9.011 31.88c-2.958 10.634-7.851 20.85-5.257 32.715 1.502 6.020 0.296 11.425-1.297 16.698l-4.142 16.061c-1.365 5.317-2.185 8.876-3.368 13.248-1.206 4.372-1.707 5.625-4.779 8.766-5.006 5.031-10.012 9.865-17.636 15.863-11.81 9.272-6.963-6.35-4.46-19.181 1.616-8.195 3.8-16.236 5.689-24.344l3.823-16.105c1.047-5.427 2.503-10.744 6.622-15.424 7.942-9.535 8.306-20.741 10.65-31.55l6.849-32.385c2.458-10.766 5.257-25.354 9.648-35.659 1.206-2.856 4.301-4.834 7.737-4.57 0.182 0 0.364 0.132 0.546 0.154 2.298-3.34 4.915-6.437 8.329-8.898 4.369-3.23 9.375-5.515 14.586-6.921 5.325-1.384 10.354-2.131 16.361-1.758 0.25 0.044 0.614 0.044 0.933 0.11 3.732 0.681 6.121 4.174 5.416 7.778s-4.346 5.976-8.078 5.229zM350.422 327.056c-9.398 3.515-18.614 8.437-27.58 13.995-1.161 0.747-2.753 1.516-4.096 1.099-1.297-0.439-2.207-2.087-2.685-3.362-1.115-3.032-2.071-6.503-2.822-10.524-3.755-21.356-1.274-31.199 9.739-14.83 0.887 1.604 1.752 3.098 2.685 4.943 2.458 4.943 6.576 7.47 12.425 7.294 4.733-0.154 8.693-0.132 12.083-0.044 0.364 0.044 0.637 0.242 0.705 0.593 0.091 0.374-0.114 0.703-0.455 0.835zM343.414 389.651c-11.241 9.667-17.454 5.361-20.366-4.174-2.799-9.25-1.752-16.764 5.052-23.421 37.046-29.595 51.61-37.922 58.641-37.526 7.851 0.439 9.489 7.404 6.94 10.744-14.677 19.334-45.306 49.962-50.267 54.378z" />
<glyph unicode="&#xe90e;" glyph-name="map-pin" d="M512 960c-198.030 0-358.4-169.272-358.4-409.68 0-308.705 203.374-507.812 343.2-609.318 9.037-6.668 21.363-6.668 30.4 0 139.825 101.506 343.2 300.613 343.2 609.318 0 240.408-160.37 409.68-358.4 409.68zM512 908.79c169.269 0 307.2-140.272 307.2-358.47 0-275.955-175.199-455.937-307.2-555.308-132.002 99.372-307.2 279.353-307.2 555.308 0 218.198 137.931 358.47 307.2 358.47zM512 723.154c-66.966 0-121.6-54.646-121.6-121.624s54.634-121.624 121.6-121.624c66.966 0 121.6 54.645 121.6 121.624s-54.634 121.624-121.6 121.624z" />
<glyph unicode="&#xe90f;" glyph-name="mark" d="M401.377 376.879l-176.997 176.997c-48.876 48.876-128.12 48.876-176.997 0s-48.876-128.12 0-176.997l265.495-265.495c24.438-24.438 56.468-36.657 88.498-36.657s64.060 12.219 88.498 36.657v0l486.741 486.741c48.876 48.876 48.876 128.12 0 176.997s-128.12 48.876-176.997 0v0l-398.243-398.243z" />
<glyph unicode="&#xe910;" glyph-name="message" d="M588.476-44.358c10.37-13.095 24.628-19.642 40.182-19.642 0 0 0 0 0 0 18.147 0 33.701 9.166 44.071 24.88 2.592 2.619 3.889 6.547 5.185 10.476l45.367 163.683h209.985c50.552 0 90.734 40.593 90.734 91.662v641.637c0 51.069-40.182 91.662-90.734 91.662h-842.532c-50.552 0-90.734-40.593-90.734-91.662v-641.637c0-51.069 40.182-91.662 90.734-91.662h326.643l171.099-179.396z" />
<glyph unicode="&#xe911;" glyph-name="mini-arrow" d="M514.573 433.004l310.839-310.839-144.815-144.815-434.446 434.446 21.208 21.208-21.208 21.208 434.446 434.446 144.815-144.815-310.839-310.839z" />
<glyph unicode="&#xe912;" glyph-name="news" d="M727.377-33.882h134.939c89.296 0 161.684 71.834 161.684 160.475v428.36c0 29.644-24.305 53.675-53.398 53.675h-162.181v268.066c0 29.375-24.194 53.189-54.298 53.189h-699.825c-29.988 0-54.298-23.824-54.298-53.189v-803.754c0-58.996 48.149-106.822 107.352-106.822h620.025zM700.632 796.508v-268.676c0-14.088-12.094-26.29-27.014-26.29h-538.815c-14.631 0-27.014 11.77-27.014 26.29v268.676c0 14.088 12.094 26.29 27.014 26.29h538.815c14.631 0 27.014-11.77 27.014-26.29zM592.842 394.458v-53.542h-485.053v53.542h485.053zM485.053 233.83v-53.542h-377.263v53.542h377.263zM916.211 126.593c0-29.471-24.101-53.39-53.895-53.39h-53.895v428.34h107.789v-374.95z" />
<glyph unicode="&#xe913;" glyph-name="notif" horiz-adv-x="768" d="M255.968 63.983h256.016c0-70.683-57.311-127.983-128.008-127.983s-128.008 57.3-128.008 127.983zM389.096 959.863c-26.337 1.406-52.094-8.082-71.221-26.238s-29.943-43.38-29.905-69.749v-47.994c-115.24-40.735-192.212-149.758-192.012-271.964v-79.989c-0.002-50.875-20.203-99.668-56.164-135.662l-13.281-13.278c-26.977-27.063-34.139-68.109-17.921-102.706 15.904-32.548 49.219-52.945 85.445-52.313h583.397c50.018 0 90.566 40.54 90.566 90.548v3.999c-0.002 21.59-7.719 42.47-21.761 58.872l-28.002 31.996c-29.981 34.961-46.393 79.532-46.243 125.583v72.95c0.2 122.206-76.772 231.228-192.012 271.964v42.554c1.13 52.457-38.61 96.807-90.886 101.426v0z" />
<glyph unicode="&#xe914;" glyph-name="phone" d="M161.449 959.067c-7.081 1.42-15.579 1.42-21.244-1.42-76.478-29.822-124.63-139.168-135.96-214.432-35.406-244.254 157.204-455.846 334.235-595.014 157.204-123.547 458.866-326.618 637.313-130.647 22.66 24.141 49.569 59.643 48.153 95.145-4.249 59.643-59.483 102.246-101.97 134.908-32.574 24.141-100.554 90.885-143.041 89.465-38.239-1.42-62.315-41.182-86.391-65.324l-42.488-42.602c-7.081-7.1-97.721 52.543-107.635 59.643-36.823 24.141-72.229 51.123-103.386 80.945s-59.483 62.484-83.559 96.565c-7.081 9.941-65.148 96.565-59.483 103.666 0 0 49.569 53.963 63.731 75.264 29.741 45.443 52.401 80.945 18.411 134.908-12.746 19.881-28.325 35.502-45.32 52.543-29.741 28.402-59.483 58.223-93.473 82.365-18.411 14.201-49.569 39.762-77.894 44.022z" />
<glyph unicode="&#xe915;" glyph-name="profile" d="M1024-63.996v107.441c0 52.19-33.75 96.499-80.594 112.188v0c-3.688 1.25-243.47 62.498-277.782 130.626-15.655 31.127-0.218 70.998 15.407 98.499 7.152 9.626 14.151 19.813 20.875 30.501v0.062c40.628 65 71.63 150.499 74.782 256.184 4.75 158.995-118.282 288.121-264.341 288.495v0h-0.69c-146.031-0.374-269.061-129.5-264.281-288.499 3.156-105.687 34.128-191.186 74.75-256.184v0c0 0 0.034 0 0.034-0.062 6.688-10.688 13.689-20.877 20.843-30.501 15.627-27.501 31.062-67.374 15.407-98.499-34.284-68.124-274.095-129.376-277.784-130.626v0c-46.842-15.692-80.626-59.998-80.626-112.192v-107.437l1024 0.004z" />
<glyph unicode="&#xe916;" glyph-name="soc-vk" d="M1018.569 220.969c-1.24 2.576-2.396 4.713-3.47 6.425-17.766 30.846-51.717 68.706-101.832 113.593l-1.059 1.028-0.53 0.504-0.536 0.517h-0.538c-22.745 20.902-37.148 34.955-43.18 42.15-11.036 13.706-13.509 27.58-7.477 41.637 4.261 10.621 20.269 33.051 47.984 67.32 14.579 18.162 26.125 32.718 34.651 43.684 61.495 78.811 88.156 129.171 79.977 151.103l-3.176 5.125c-2.134 3.085-7.643 5.908-16.519 8.482-8.896 2.569-20.267 2.994-34.132 1.282l-153.544-1.022c-2.487 0.85-6.039 0.77-10.667-0.259-4.622-1.030-6.934-1.546-6.934-1.546l-2.672-1.287-2.121-1.546c-1.778-1.022-3.733-2.821-5.867-5.391-2.123-2.562-3.899-5.568-5.318-8.994-16.717-41.459-35.723-80.006-57.054-115.638-13.152-21.247-25.23-39.661-36.261-55.252-11.016-15.586-20.257-27.069-27.716-34.43-7.47-7.368-14.211-13.271-20.265-17.73-6.045-4.461-10.659-6.346-13.854-5.656-3.203 0.689-6.218 1.374-9.074 2.058-4.973 3.085-8.973 7.282-11.989 12.592-3.029 5.31-5.068 11.994-6.134 20.046-1.061 8.057-1.688 14.988-1.867 20.815-0.166 5.82-0.090 14.052 0.271 24.673 0.37 10.626 0.536 17.816 0.536 21.586 0 13.022 0.263 27.155 0.792 42.403 0.538 15.247 0.973 27.328 1.337 36.228 0.362 8.909 0.53 18.335 0.53 28.271s-0.627 17.73-1.867 23.386c-1.225 5.649-3.105 11.132-5.583 16.448-2.493 5.31-6.142 9.418-10.93 12.335-4.797 2.913-10.762 5.224-17.86 6.941-18.84 4.11-42.83 6.333-71.982 6.679-66.107 0.684-108.585-3.431-127.423-12.34-7.464-3.764-14.218-8.907-20.257-15.413-6.4-7.541-7.292-11.656-2.672-12.333 21.329-3.080 36.429-10.448 45.316-22.097l3.203-6.173c2.491-4.454 4.978-12.338 7.468-23.643 2.485-11.305 4.090-23.811 4.795-37.51 1.774-25.017 1.774-46.431 0-64.246-1.78-17.821-3.46-31.695-5.064-41.632s-4.002-17.989-7.199-24.154c-3.203-6.167-5.333-9.937-6.401-11.305-1.066-1.368-1.955-2.23-2.661-2.569-4.62-1.707-9.425-2.576-14.398-2.576-4.98 0-11.019 2.401-18.127 7.201-7.105 4.799-14.48 11.391-22.123 19.787-7.643 8.398-16.263 20.133-25.863 35.207-9.593 15.074-19.546 32.891-29.854 53.448l-8.528 14.909c-5.331 9.591-12.614 23.557-21.856 41.884-9.247 18.335-17.421 36.070-24.526 53.202-2.84 7.195-7.107 12.673-12.793 16.443l-2.668 1.546c-1.774 1.368-4.622 2.821-8.528 4.369-3.912 1.546-7.994 2.655-12.263 3.337l-146.084-1.022c-14.928 0-25.057-3.26-30.39-9.771l-2.134-3.080c-1.066-1.716-1.604-4.455-1.604-8.227 0-3.77 1.066-8.396 3.201-13.874 21.326-48.316 44.517-94.913 69.573-139.798s46.83-81.041 65.308-108.436c18.482-27.414 37.32-53.288 56.515-77.608 19.195-24.329 31.901-39.92 38.117-46.77 6.224-6.862 11.113-11.993 14.666-15.418l13.331-12.333c8.53-8.225 21.057-18.075 37.585-29.551 16.532-11.483 34.834-22.788 54.916-33.933 20.086-11.127 43.452-20.207 70.113-27.229 26.657-7.030 52.602-9.85 77.84-8.49h61.314c12.435 1.035 21.856 4.805 28.259 11.31l2.121 2.576c1.427 2.045 2.762 5.222 3.994 9.498 1.247 4.283 1.867 9.001 1.867 14.133-0.364 14.731 0.799 28.007 3.458 39.826 2.657 11.816 5.686 20.725 9.074 26.725 3.386 5.994 7.206 11.053 11.458 15.154 4.261 4.11 7.298 6.599 9.079 7.456 1.77 0.862 3.184 1.447 4.25 1.798 8.53 2.74 18.569 0.086 30.132-7.973 11.554-8.052 22.39-17.994 32.526-29.81 10.131-11.827 22.302-25.096 36.517-39.826 14.224-14.736 26.661-25.69 37.32-32.896l10.659-6.167c7.118-4.115 16.36-7.885 27.736-11.31 11.356-3.424 21.305-4.281 29.848-2.569l136.482 2.052c13.499 0 24.003 2.155 31.454 6.43 7.466 4.283 11.901 9.001 13.331 14.133 1.427 5.138 1.503 10.967 0.271 17.483-1.264 6.5-2.51 11.046-3.75 13.615z" />
<glyph unicode="&#xe917;" glyph-name="webcam" d="M662.869 77.084c170.394 62.805 292.864 231.196 292.864 427.804 0 251.221-198.793 455.111-443.733 455.111s-443.733-203.89-443.733-455.111c0-196.608 122.47-364.999 292.864-427.804l-162.406-98.304c-20.412-20.935-11.537-42.78 8.875-42.78h608.802c20.412 0 29.286 21.845 8.875 42.78l-162.406 98.304zM512 755.2c134.501 0 244.053-112.362 244.053-250.311s-109.553-250.311-244.053-250.311c-134.501 0-244.053 112.362-244.053 250.311s109.553 250.311 244.053 250.311zM512 391.111c61.235 0 110.933 50.972 110.933 113.778s-49.698 113.778-110.933 113.778c-61.235 0-110.933-50.972-110.933-113.778s49.698-113.778 110.933-113.778z" />
<glyph unicode="&#xe918;" glyph-name="wifi" d="M999.597 751.64c32.534-32.415 32.534-84.971 0.021-117.396-32.523-32.404-85.247-32.415-117.749 0-203.946 203.336-535.794 203.336-739.729 0-16.261-16.202-37.573-24.314-58.874-24.314-21.312 0-42.624 8.112-58.874 24.314-32.523 32.415-32.523 84.981 0 117.386 268.853 268.080 706.352 268.070 975.205 0.011zM144.671 475.001c202.536 201.931 532.1 201.92 734.668 0.011 32.523-32.415 32.523-84.971 0.011-117.396-16.261-16.202-37.584-24.303-58.885-24.303-21.312 0-42.613 8.101-58.874 24.303-137.64 137.197-361.563 137.207-499.182 0-32.523-32.415-85.236-32.404-117.738 0-32.523 32.426-32.523 84.981 0 117.386zM512 1.64c-89.798 0-162.593 72.578-162.593 162.107s72.795 162.107 162.593 162.107c89.798 0 162.593-72.578 162.593-162.107s-72.795-162.107-162.593-162.107z" />
<glyph unicode="&#xea10;" glyph-name="checkmark" d="M864 832l-480-480-224 224-160-160 384-384 640 640z" />
<glyph unicode="&#xea1c;" glyph-name="triangle" d="M192 832l640-384-640-384z" />
</font>
</defs>
</svg>
